<svg xmlns="http://www.w3.org/2000/svg" width="120" height="120" viewBox="0 0 88 88" fill="none">

    <!--tech skills-->
    <g id="git_skill">
        <path fill-rule="evenodd" clip-rule="evenodd"
              d="M44 0C19.69 0 0 19.69 0 44C0 63.47 12.595 79.915 30.085 85.745C32.285 86.13 33.11 84.81 33.11 83.655C33.11 82.61 33.055 79.145 33.055 75.46C22 77.495 19.14 72.765 18.26 70.29C17.765 69.025 15.62 65.12 13.75 64.075C12.21 63.25 10.01 61.215 13.695 61.16C17.16 61.105 19.635 64.35 20.46 65.67C24.42 72.325 30.745 70.455 33.275 69.3C33.66 66.44 34.815 64.515 36.08 63.415C26.29 62.315 16.06 58.52 16.06 41.69C16.06 36.905 17.765 32.945 20.57 29.865C20.13 28.765 18.59 24.255 21.01 18.205C21.01 18.205 24.695 17.05 33.11 22.715C36.63 21.725 40.37 21.23 44.11 21.23C47.85 21.23 51.59 21.725 55.11 22.715C63.525 16.995 67.21 18.205 67.21 18.205C69.63 24.255 68.09 28.765 67.65 29.865C70.455 32.945 72.16 36.85 72.16 41.69C72.16 58.575 61.875 62.315 52.085 63.415C53.68 64.79 55.055 67.43 55.055 71.555C55.055 77.44 55 82.17 55 83.655C55 84.81 55.825 86.185 58.025 85.745C66.7597 82.796 74.3497 77.1822 79.7268 69.6937C85.1039 62.2052 87.9974 53.219 88 44C88 19.69 68.31 0 44 0Z"
              fill="#FFFEFE"/>
    </g>

    <g id="redux">
        <path d="M72.6971 69.5627C76.5688 69.1619 79.5061 65.8242 79.3725 61.8184C79.2393 57.8131 75.9012 54.6086 71.8959 54.6086H71.6291C67.4897 54.7422 64.2856 58.2135 64.4193 62.3525C64.5529 64.3553 65.3537 66.091 66.5553 67.2926C62.016 76.2385 55.0734 82.7807 44.6594 88.2549C37.5832 91.9934 30.2402 93.3287 22.8971 92.3943C16.8889 91.593 12.216 88.923 9.27827 84.5164C5.00614 77.9742 4.60573 70.8975 8.21065 63.8213C10.7475 58.7475 14.7525 55.009 17.2893 53.1398C16.7553 51.4041 15.9541 48.4668 15.5537 46.3307C-3.80574 60.35 -1.80287 79.3094 4.07172 88.2549C8.47745 94.9311 17.4229 99.0701 27.3029 99.0701C29.9729 99.0701 32.643 98.8029 35.3135 98.1357C52.4033 94.7975 65.3541 84.65 72.6971 69.5627ZM96.1955 53.0066C86.0483 41.1234 71.0951 34.5811 54.0053 34.5811H51.8693C50.6676 32.1779 48.1307 30.5754 45.327 30.5754H45.0598C40.9213 30.709 37.7172 34.1803 37.8504 38.3197C37.984 42.325 41.3217 45.5295 45.327 45.5295H45.5938C48.5311 45.3959 51.068 43.5266 52.1361 40.9898H54.5393C64.6865 40.9898 74.2992 43.927 82.9779 49.6684C89.6533 54.0746 94.4598 59.816 97.1299 66.7586C99.3996 72.3664 99.266 77.8406 96.8627 82.5139C93.1246 89.5902 86.8496 93.4623 78.5717 93.4623C73.2311 93.4623 68.1578 91.8598 65.4873 90.6582C64.0188 91.9934 61.3484 94.1295 59.4791 95.4652C65.2205 98.1352 71.0951 99.6041 76.7025 99.6041C89.5197 99.6041 98.9992 92.5275 102.604 85.4512C106.476 77.707 106.209 64.3553 96.1955 53.0066ZM28.3709 71.832C28.5045 75.8377 31.8422 79.0418 35.8475 79.0418H36.1147C40.2537 78.9086 43.4578 75.4369 43.3242 71.2979C43.191 67.2922 39.8529 64.0881 35.8475 64.0881H35.5807C35.3135 64.0881 34.9127 64.0881 34.6463 64.2213C29.1721 55.1422 26.9025 45.2623 27.7037 34.5807C28.2373 26.5697 30.9078 19.6266 35.5807 13.8852C39.4525 8.94508 46.9291 6.5418 52.0029 6.40861C66.1549 6.14139 72.1627 23.7656 72.5635 30.8422C74.2992 31.2426 77.2365 32.1775 79.2393 32.8451C77.6369 11.2156 64.2856 0 51.4688 0C39.4524 0 28.3709 8.67869 23.9647 21.4963C17.8234 38.5865 21.8287 55.009 29.3053 67.9602C28.6381 68.8947 28.2373 70.3635 28.3709 71.8324V71.832Z"
              fill="#764ABC"/>
    </g>

    <g id="react">
        <g clip-path="url(#clip0_2_5870)">
            <path d="M92.9056 32.7028C91.7031 32.2887 90.4904 31.9051 89.2687 31.5524C89.4739 30.7107 89.6628 29.8792 89.8306 29.0624C92.5838 15.6484 90.7839 4.84184 84.6361 1.28381C78.7416 -2.12716 69.1016 1.42955 59.3659 9.93348C58.4064 10.7731 57.4682 11.6369 56.5522 12.524C55.9389 11.9341 55.3149 11.3556 54.6803 10.7889C44.4767 1.69623 34.2493 -2.13602 28.1081 1.43221C22.2189 4.8538 20.475 15.0127 22.9538 27.7254C23.2004 28.9845 23.4788 30.2371 23.7888 31.4819C22.3412 31.8948 20.9442 32.3342 19.6073 32.802C7.64443 36.9882 0.00476074 43.5483 0.00476074 50.353C0.00476074 57.3809 8.20629 64.4301 20.6662 68.7044C21.6763 69.0495 22.6949 69.3693 23.7209 69.6635C23.3877 71.0042 23.0918 72.3541 22.8337 73.7114C20.4706 86.2035 22.316 96.1224 28.1893 99.5223C34.2555 103.033 44.437 99.4248 54.3506 90.7268C55.1545 90.0197 55.9407 89.2925 56.7084 88.546C57.7004 89.5067 58.7189 90.4394 59.7627 91.343C69.366 99.6365 78.8502 102.985 84.7177 99.5763C90.7782 96.055 92.748 85.3995 90.1907 72.4357C89.9893 71.42 89.7634 70.4094 89.5132 69.4048C90.2282 69.1921 90.93 68.9733 91.6141 68.7456C104.567 64.4385 112.995 57.4748 112.995 50.353C112.995 43.5235 105.109 36.9191 92.9056 32.7028ZM90.0963 64.1474C89.4783 64.3525 88.8445 64.5506 88.1984 64.7433C86.7683 60.1996 84.8387 55.3684 82.4769 50.3764C84.7305 45.5036 86.586 40.7341 87.9759 36.2201C89.1319 36.5558 90.2534 36.9098 91.3347 37.2832C101.791 40.8962 108.169 46.2372 108.169 50.353C108.169 54.7367 101.281 60.4277 90.0963 64.1474ZM85.4557 73.3765C86.5865 79.1087 86.7476 84.2916 85.9986 88.3436C85.3259 91.9845 83.9727 94.4116 82.299 95.3839C78.7385 97.4526 71.1235 94.7637 62.911 87.6707C61.9401 86.8305 60.9927 85.9634 60.0699 85.0704C63.2539 81.5757 66.4358 77.5131 69.5412 73.0009C75.0036 72.5145 80.1641 71.7189 84.844 70.6332C85.0694 71.5426 85.2734 72.4574 85.4557 73.3765ZM38.5257 95.0264C35.0469 96.2592 32.2759 96.2947 30.6009 95.3254C27.0369 93.2625 25.5552 85.2981 27.5762 74.6151C27.8165 73.3527 28.0916 72.0973 28.4012 70.8502C33.0294 71.8779 38.1523 72.6168 43.6275 73.0625C46.7542 77.4777 50.0278 81.5358 53.3271 85.0894C52.6259 85.7704 51.9082 86.4339 51.1745 87.0793C46.7904 90.9253 42.3974 93.6541 38.5257 95.0264ZM22.2277 64.1204C16.7181 62.2302 12.168 59.7739 9.04931 57.0934C6.24661 54.6849 4.83202 52.2932 4.83202 50.353C4.83202 46.2235 10.9657 40.9564 21.1962 37.3767C22.4378 36.9426 23.7372 36.5328 25.0856 36.1483C26.4997 40.7642 28.3544 45.5905 30.5926 50.4708C28.3252 55.4233 26.4441 60.3267 25.0163 64.9971C24.0798 64.7278 23.15 64.4355 22.2277 64.1204ZM27.691 26.7947C25.5676 15.9031 26.9777 7.68712 30.5268 5.62504C34.3067 3.42873 42.6653 6.56017 51.4755 14.4116C52.05 14.9247 52.6152 15.4483 53.1708 15.982C49.8879 19.5201 46.6443 23.5481 43.5454 27.9372C38.2313 28.4315 33.1446 29.2254 28.4678 30.289C28.1797 29.1311 27.9206 27.9661 27.691 26.7952V26.7947ZM76.4301 38.874C75.3255 36.9589 74.1799 35.068 72.9941 33.2025C76.5992 33.6601 80.0533 34.2674 83.297 35.0098C82.3233 38.1426 81.1095 41.4176 79.6808 44.7754C78.6365 42.7867 77.5527 40.8192 76.4301 38.874ZM56.5544 19.4443C58.7806 21.8652 61.0104 24.5679 63.2036 27.5004C58.7546 27.2895 54.2982 27.2886 49.8491 27.4977C52.0445 24.5922 54.2932 21.8931 56.5544 19.4443ZM36.5511 38.9072C35.4425 40.8368 34.3789 42.792 33.3613 44.7714C31.956 41.4255 30.7532 38.1355 29.7712 34.9584C32.9949 34.2346 36.4328 33.6428 40.0149 33.1936C38.8159 35.0705 37.661 36.9754 36.5511 38.9067V38.9072ZM40.1178 67.857C36.4169 67.4424 32.9274 66.8811 29.7045 66.1768C30.702 62.943 31.9312 59.583 33.367 56.1653C34.3887 58.1462 35.4567 60.1026 36.57 62.0331C37.7149 64.0177 38.9005 65.9615 40.1178 67.857ZM56.6877 81.6027C54.3996 79.1256 52.1177 76.3848 49.8892 73.4372C52.0528 73.5223 54.2584 73.5657 56.5001 73.5657C58.8031 73.5657 61.0797 73.5139 63.3206 73.4138C61.1203 76.4145 58.8989 79.1592 56.6877 81.6027ZM79.7263 55.9908C81.2366 59.4461 82.5096 62.7884 83.5203 65.9668C80.2444 66.7172 76.7073 67.3214 72.9804 67.7702C74.1746 65.87 75.3311 63.9462 76.4491 61.9999C77.5858 60.0215 78.6784 58.018 79.7263 55.9908ZM72.268 59.5794C70.5565 62.5635 68.7487 65.491 66.8475 68.3571C63.4038 68.6019 59.9525 68.7235 56.5001 68.7217C52.9837 68.7217 49.5635 68.6118 46.27 68.3974C44.3193 65.5379 42.477 62.6053 40.7472 59.606H40.7476C39.0259 56.6225 37.4177 53.5745 35.9265 50.4686C37.4139 47.3619 39.0172 44.3125 40.733 41.3268L40.7326 41.3272C42.4478 38.3407 44.2753 35.4207 46.2113 32.5734C49.5715 32.3183 53.0172 32.1854 56.4996 32.1854H56.5001C59.9984 32.1854 63.4486 32.3196 66.8078 32.5765C68.7243 35.4195 70.5402 38.3295 72.2521 41.3011C73.9736 44.2802 75.5982 47.3148 77.1231 50.3999C75.6138 53.5166 73.9944 56.5784 72.268 59.5794ZM82.2253 5.48062C86.0087 7.67073 87.4803 16.5025 85.103 28.0842C84.9512 28.8231 84.7808 29.5758 84.5955 30.339C79.9072 29.2528 74.8169 28.4453 69.4874 27.9434C66.3828 23.506 63.1656 19.4718 59.9361 15.9793C60.7825 15.1605 61.6491 14.3628 62.5349 13.5872C70.8768 6.30147 78.6732 3.42474 82.2253 5.48062ZM56.5001 40.2264C62.0724 40.2264 66.5898 44.7603 66.5898 50.353C66.5898 55.9456 62.0724 60.4796 56.5001 60.4796C50.9278 60.4796 46.4104 55.9456 46.4104 50.353C46.4104 44.7603 50.9278 40.2264 56.5001 40.2264Z"
                  fill="#00D8FF"/>
        </g>
        <defs>
            <clipPath id="clip0_2_5870">
                <rect width="113" height="101" fill="white"/>
            </clipPath>
        </defs>
    </g>

    <g id="javascript">
        <path d="M7.5 7.5H112.5V112.5H7.5V7.5Z" fill="#F5DE19"/>
        <path d="M78.0338 89.5312C78.9284 91.3485 80.3183 92.8759 82.0434 93.9375C83.7684 94.9991 85.7584 95.5515 87.7838 95.5313C91.8713 95.5313 94.485 93.4875 94.485 90.6562C94.485 87.2812 91.8 86.0738 87.3 84.105L84.8325 83.0475C77.7075 80.0138 72.9825 76.215 72.9825 68.1825C72.9825 60.7838 78.6075 55.1475 87.4313 55.1475C90.2877 54.9412 93.1416 55.5805 95.637 56.9856C98.1324 58.3907 100.159 60.4994 101.464 63.0488L93.75 67.98C93.2476 66.716 92.3728 65.6345 91.2416 64.879C90.1105 64.1236 88.7764 63.7298 87.4163 63.75C86.8229 63.6906 86.2236 63.7555 85.6567 63.9404C85.0897 64.1254 84.5675 64.4265 84.1234 64.8244C83.6792 65.2224 83.3228 65.7085 83.0769 66.2518C82.831 66.7951 82.7009 67.3837 82.695 67.98C82.695 70.9388 84.5288 72.1388 88.7625 73.98L91.23 75.0375C99.615 78.6338 104.355 82.2975 104.355 90.5363C104.355 99.42 97.3763 104.287 88.005 104.287C84.3537 104.52 80.713 103.691 77.5223 101.901C74.3317 100.11 71.7274 97.4342 70.0238 94.1963L78.0338 89.5312ZM43.1775 90.3863C44.7263 93.135 46.1363 95.46 49.5263 95.46C52.7663 95.46 54.8138 94.1925 54.8138 89.2612V55.71H64.68V89.3925C64.68 99.6075 58.68 104.257 49.9463 104.257C46.8591 104.426 43.7931 103.657 41.1513 102.051C38.5096 100.444 36.4157 98.0761 35.145 95.2575L43.1775 90.3863Z"
              fill="black"/>
    </g>

    <g id="css">
        <path d="M22.1325 101.154L13.71 7.4375H106.29L97.8562 101.139L59.9437 111.562L22.1325 101.154Z" fill="#1572B6"/>
        <path d="M60 103.597L90.6375 95.1739L97.845 15.1018H60V103.597Z" fill="#33A9DC"/>
        <path d="M60 49.054H75.3375L76.395 37.2842H60V25.7896H89.0625L88.785 28.8724L85.9387 60.5487H60V49.054Z"
              fill="white"/>
        <path d="M60.0713 78.9045L60.0188 78.9193L47.1113 75.4609L46.2863 66.2942H34.65L36.2738 84.3413L60.015 90.8788L60.0713 90.864V78.9045Z"
              fill="#EBEBEB"/>
        <path d="M74.3513 60.0615L72.9563 75.4534L60.03 78.9119V90.8714L83.79 84.3412L83.9663 82.4001L85.98 60.0615H74.3513Z"
              fill="white"/>
        <path d="M60.0413 25.7896V37.2842H32.0438L31.8113 34.6997L31.2825 28.8724L31.005 25.7896H60.0413ZM60 49.054V60.5487H47.2538L47.0213 57.9642L46.4963 52.1369L46.2188 49.054H60Z"
              fill="#EBEBEB"/>
    </g>

    <g id="html">
        <path d="M22.1325 102.004L13.7063 7.5H106.294L97.8563 101.989L59.9438 112.5L22.1325 102.004Z" fill="#E44F26"/>
        <path d="M60 104.468L90.6375 95.9738L97.845 15.2288H60V104.468Z" fill="#F1662A"/>
        <path d="M60 50.2763H44.6625L43.605 38.4075H60V26.8163H30.9375L31.215 29.9288L34.0613 61.8675H60V50.2763ZM60 80.3775L59.9475 80.3925L47.04 76.9088L46.215 67.665H34.5787L36.2025 85.86L59.9475 92.4525L60 92.4375V80.3775Z"
              fill="#EBEBEB"/>
        <path d="M59.9587 50.2763V61.8675H74.2312L72.8887 76.9013L59.9587 80.3888V92.4488L83.7225 85.86L83.895 83.9025L86.6175 53.3888L86.9025 50.2763H59.9587ZM59.9587 26.8163V38.4075H87.9562L88.1887 35.805L88.7175 29.9288L88.995 26.8163H59.9587Z"
              fill="white"/>
    </g>

    <g id="typescript">
        <path d="M0 200V0h400v400H0" fill="#007acc"/>
        <path d="M87.7 200.7V217h52v148h36.9V217h52v-16c0-9 0-16.3-.4-16.5 0-.3-31.7-.4-70.2-.4l-70 .3v16.4l-.3-.1zM321.4 184c10.2 2.4 18 7 25 14.3 3.7 4 9.2 11 9.6 12.8 0 .6-17.3 12.3-27.8 18.8-.4.3-2-1.4-3.6-4-5.2-7.4-10.5-10.6-18.8-11.2-12-.8-20 5.5-20 16 0 3.2.6 5 1.8 7.6 2.7 5.5 7.7 8.8 23.2 15.6 28.6 12.3 41 20.4 48.5 32 8.5 13 10.4 33.4 4.7 48.7-6.4 16.7-22 28-44.3 31.7-7 1.2-23 1-30.5-.3-16-3-31.3-11-40.7-21.3-3.7-4-10.8-14.7-10.4-15.4l3.8-2.4 15-8.7 11.3-6.6 2.6 3.5c3.3 5.2 10.7 12.2 15 14.6 13 6.7 30.4 5.8 39-2 3.7-3.4 5.3-7 5.3-12 0-4.6-.7-6.7-3-10.2-3.2-4.4-9.6-8-27.6-16-20.7-8.8-29.5-14.4-37.7-23-4.7-5.2-9-13.3-11-20-1.5-5.8-2-20-.6-25.7 4.3-20 19.4-34 41-38 7-1.4 23.5-.8 30.4 1l-.2.2z"
              fill="#fff"/>
    </g>

    <g id="web_storm">
        <defs>
            <linearGradient x1="41.7030965%" y1="1.92488263%" x2="71.8761384%" y2="95.2347418%" id="linearGradient-1">
                <stop stop-color="#00CDD7" offset="28%">

                </stop>
                <stop stop-color="#2086D7" offset="94%">

                </stop>
            </linearGradient>
            <linearGradient x1="22.4892241%" y1="15.1271186%" x2="82.8771552%" y2="84.7627119%" id="linearGradient-2">
                <stop stop-color="#FFF045" offset="14%">

                </stop>
                <stop stop-color="#00CDD7" offset="37%">

                </stop>
            </linearGradient>
            <linearGradient x1="11171%" y1="-27691.7984%" x2="11907%" y2="-28759.6256%" id="linearGradient-3">
                <stop stop-color="#00CDD7" offset="28%">

                </stop>
                <stop stop-color="#2086D7" offset="94%">

                </stop>
            </linearGradient>
        </defs>
        <g>
            <polygon fill="url(#linearGradient-1)"
                     points="34.4 231.2 0 26.8 64 0.4 104.4 24.4 142 4.4 219.6 34.4 176 256">

            </polygon>
            <polygon fill="url(#linearGradient-2)"
                     points="256 86.8 222.8 5.2 163.2 0 70.4 88.8 95.2 203.6 142 236 256 168.4 228 116">

            </polygon>
            <polygon fill="url(#linearGradient-3)" points="204.8 74.4 228 116 256 86.8 235.6 36">

            </polygon>
            <rect fill="#000000" x="48" y="48" width="160" height="160">

            </rect>
            <path d="M63.2,178 L123.2,178 L123.2,188 L63.2,188 L63.2,178 Z M141.6,125.6 L150,115.2 C156,120 162,123.2 169.6,123.2 C175.6,123.2 179.2,120.8 179.2,116.8 C179.2,113.2 176.8,111.2 166,108.4 C152.8,104.8 144.4,101.2 144.4,88 L144.4,87.6 C144.4,75.6 154,67.6 167.2,67.6 C176.04879,67.5627811 184.649333,70.5236236 191.6,76 L184,87.2 C179.170815,83.4261245 173.316089,81.1957528 167.2,80.8 C162,80.8 158.8,83.2 158.8,86.8 C158.8,91.2 161.6,92.8 172.8,95.6 C186,99.2 193.6,104 193.6,115.6 C193.6,128.8 183.6,136.4 169.6,136.4 C159.323641,136.02223 149.468301,132.220884 141.6,125.6 Z M128.8,68.8 L118.8,107.2 L107.6,68.8 L96.4,68.8 L85.2,107.2 L75.2,68.8 L59.6,68.8 L78.8,135.2 L91.2,135.2 L102,96.8 L112.8,135.2 L125.2,135.2 L144.4,68.8 L128.8,68.8 Z"
                  fill="#FFFFFF">
            </path>
        </g>
    </g>

    <g id="mobX">
        <path d="M256 236.394V19.607c0-8.894-5.923-16.4-14.037-18.8l-9.215 5.514-102.265 109.037-3.206 10.021-1.873 9.62 31.89 119.18 4.933 1.82h74.167c10.828 0 19.606-8.777 19.606-19.605"
              fill="#EA6618"/>
        <path d="M0 19.606v216.787c0 6.705 3.367 12.62 8.5 16.155l6.287-3.01 108.246-115.894 4.244-8.265.159-7.99L97.976 5.306 93.513 0H19.606C8.778 0 0 8.778 0 19.606"
              fill="#d65813"/>
        <path d="M127.277 125.38L241.963.806a19.595 19.595 0 0 0-5.57-.807H93.515l33.763 125.38z" fill="#e05e11"/>
        <path d="M19.606 256h142.622l-34.951-130.621L8.499 252.549A19.511 19.511 0 0 0 19.606 256" fill="#de5c16"/>
        <path d="M94.918 97.03h14.225c5.668 21.386 12.119 40.152 19.316 57.085 8.152-19.05 14.127-37.83 19.185-57.086h13.442c-6.02 23.926-15.868 48.04-27.132 72.93h-11.89c-10.82-23.586-20.03-47.837-27.146-72.93zm-46.92-37.055h31.63v135.637h-31.77v-10.456H67.33V70.152H47.998V59.975zm160.169 10.177h-19.332v115.004h19.47v10.456h-31.769V59.975h31.63v10.177z"
              fill="#FFF"/>
    </g>

    <g id="nodeJS">
        <g fill="#8CC84B">
            <path d="M116.504 3.58c6.962-3.985 16.03-4.003 22.986 0 34.995 19.774 70.001 39.517 104.99 59.303 6.581 3.707 10.983 11.031 10.916 18.614v118.968c.049 7.897-4.788 15.396-11.731 19.019-34.88 19.665-69.742 39.354-104.616 59.019-7.106 4.063-16.356 3.75-23.24-.646-10.457-6.062-20.932-12.094-31.39-18.15-2.137-1.274-4.546-2.288-6.055-4.36 1.334-1.798 3.719-2.022 5.657-2.807 4.365-1.388 8.374-3.616 12.384-5.778 1.014-.694 2.252-.428 3.224.193 8.942 5.127 17.805 10.403 26.777 15.481 1.914 1.105 3.852-.362 5.488-1.274 34.228-19.345 68.498-38.617 102.72-57.968 1.268-.61 1.969-1.956 1.866-3.345.024-39.245.006-78.497.012-117.742.145-1.576-.767-3.025-2.192-3.67-34.759-19.575-69.5-39.18-104.253-58.76a3.621 3.621 0 0 0-4.094-.006C91.2 39.257 56.465 58.88 21.712 78.454c-1.42.646-2.373 2.071-2.204 3.653.006 39.245 0 78.497 0 117.748a3.329 3.329 0 0 0 1.89 3.303c9.274 5.259 18.56 10.481 27.84 15.722 5.228 2.814 11.647 4.486 17.407 2.33 5.083-1.823 8.646-7.01 8.549-12.407.048-39.016-.024-78.038.036-117.048-.127-1.732 1.516-3.163 3.2-3 4.456-.03 8.918-.06 13.374.012 1.86-.042 3.14 1.823 2.91 3.568-.018 39.263.048 78.527-.03 117.79.012 10.464-4.287 21.85-13.966 26.97-11.924 6.177-26.662 4.867-38.442-1.056-10.198-5.09-19.93-11.097-29.947-16.55C5.368 215.886.555 208.357.604 200.466V81.497c-.073-7.74 4.504-15.197 11.29-18.85C46.768 42.966 81.636 23.27 116.504 3.58z"/>
            <path d="M146.928 85.99c15.21-.979 31.493-.58 45.18 6.913 10.597 5.742 16.472 17.793 16.659 29.566-.296 1.588-1.956 2.464-3.472 2.355-4.413-.006-8.827.06-13.24-.03-1.872.072-2.96-1.654-3.195-3.309-1.268-5.633-4.34-11.212-9.642-13.929-8.139-4.075-17.576-3.87-26.451-3.785-6.479.344-13.446.905-18.935 4.715-4.214 2.886-5.494 8.712-3.99 13.404 1.418 3.369 5.307 4.456 8.489 5.458 18.33 4.794 37.754 4.317 55.734 10.626 7.444 2.572 14.726 7.572 17.274 15.366 3.333 10.446 1.872 22.932-5.56 31.318-6.027 6.901-14.805 10.657-23.56 12.697-11.647 2.597-23.734 2.663-35.562 1.51-11.122-1.268-22.696-4.19-31.282-11.768-7.342-6.375-10.928-16.308-10.572-25.895.085-1.619 1.697-2.748 3.248-2.615 4.444-.036 8.888-.048 13.332.006 1.775-.127 3.091 1.407 3.182 3.08.82 5.367 2.837 11 7.517 14.182 9.032 5.827 20.365 5.428 30.707 5.591 8.568-.38 18.186-.495 25.178-6.158 3.689-3.23 4.782-8.634 3.785-13.283-1.08-3.925-5.186-5.754-8.712-6.95-18.095-5.724-37.736-3.647-55.656-10.12-7.275-2.571-14.31-7.432-17.105-14.906-3.9-10.578-2.113-23.662 6.098-31.765 8.006-8.06 19.563-11.164 30.551-12.275z"/>
        </g>
    </g>

    <g id="postman">
        <g>
            <path d="M254.953118,144.253071 C263.911504,74.1217108 214.38443,10.0052669 144.381048,1.04688158 C74.3776647,-7.9115038 10.0052669,41.6155696 1.04688158,111.618952 C-7.9115038,181.622335 41.6155696,245.866756 111.618952,254.953118 C181.750312,263.911504 245.866756,214.38443 254.953118,144.253071 Z"
                  fill="#FF6C37">

            </path>
            <g transform="translate(50.181225, 45.198924)">
                <path d="M124.018448,36.9853339 L70.012182,90.9916 L54.7829269,75.7623449 C107.893354,22.6519173 113.140409,27.2590869 124.018448,36.9853339 L124.018448,36.9853339 Z"
                      fill="#FFFFFF">

                </path>
                <path d="M70.012182,92.2713693 C69.6282512,92.2713693 69.3722974,92.1433924 69.1163435,91.8874385 L53.7591114,76.6581834 C53.2472037,76.1462757 53.2472037,75.3784141 53.7591114,74.8665063 C107.765378,20.8602402 113.396363,25.9793176 124.78631,36.2174723 C125.042264,36.4734262 125.170241,36.72938 125.170241,37.1133108 C125.170241,37.4972416 125.042264,37.7531955 124.78631,38.0091494 L70.7800436,91.8874385 C70.6520667,92.1433924 70.2681359,92.2713693 70.012182,92.2713693 Z M56.574604,75.7623449 L70.012182,89.1999229 L122.098794,37.1133108 C112.628501,28.6668332 106.229654,26.1072945 56.574604,75.7623449 L56.574604,75.7623449 Z"
                      fill="#FF6C37">

                </path>
                <path d="M85.497391,106.476809 L70.7800436,91.7594616 L124.78631,37.7531955 C139.247703,52.342566 117.619601,76.0182987 85.497391,106.476809 Z"
                      fill="#FFFFFF">

                </path>
                <path d="M85.497391,107.756578 C85.1134602,107.756578 84.8575064,107.628601 84.6015525,107.372648 L69.8842051,92.6553001 C69.6282512,92.3993463 69.6282512,92.1433924 69.6282512,91.7594616 C69.6282512,91.3755308 69.7562282,91.1195769 70.012182,90.8636231 L124.018448,36.857357 C124.530356,36.3454492 125.298217,36.3454492 125.810125,36.857357 C129.137525,39.9288034 130.929203,44.2800191 130.801226,48.7592118 C130.545272,62.9646515 114.420178,81.0093992 86.5212065,107.372648 C86.1372757,107.628601 85.7533449,107.756578 85.497391,107.756578 L85.497391,107.756578 Z M72.5717207,91.7594616 C80.7622445,100.077962 84.2176217,103.405363 85.497391,104.685132 C106.997516,84.2088225 127.857756,63.2206053 127.985733,48.7592118 C128.11371,45.4318115 126.833941,42.1044113 124.658333,39.5448726 L72.5717207,91.7594616 Z"
                      fill="#FF6C37">

                </path>
                <path d="M55.0388808,76.1462757 L65.9169201,87.024315 C66.172874,87.2802689 66.172874,87.5362228 65.9169201,87.7921767 C65.7889432,87.9201536 65.7889432,87.9201536 65.6609663,87.9201536 L43.1370259,92.7832771 C41.9852335,92.911254 40.961418,92.1433924 40.7054642,90.9916 C40.5774872,90.3517153 40.8334411,89.7118307 41.2173719,89.3278999 L54.2710192,76.2742526 C54.526973,76.0182987 54.9109038,75.8903218 55.0388808,76.1462757 Z"
                      fill="#FFFFFF">

                </path>
                <path d="M42.7530951,94.0630464 C40.8334411,94.0630464 39.4256948,92.5273232 39.4256948,90.6076692 C39.4256948,89.7118307 39.8096256,88.8159921 40.4495103,88.1761075 L53.5031576,75.1224602 C54.2710192,74.4825755 55.2948346,74.4825755 56.0626962,75.1224602 L66.9407356,86.0004996 C67.7085972,86.6403842 67.7085972,87.7921767 66.9407356,88.5600383 C66.6847817,88.8159921 66.4288279,88.9439691 66.0448971,89.071946 L43.5209567,93.9350695 C43.2650028,93.9350695 43.009049,94.0630464 42.7530951,94.0630464 L42.7530951,94.0630464 Z M54.65495,77.5540219 L42.1132104,90.0957615 C41.8572566,90.3517153 41.7292796,90.7356461 41.9852335,91.1195769 C42.1132104,91.5035077 42.4971412,91.6314847 42.881072,91.5035077 L63.9972661,86.8963381 L54.65495,77.5540219 Z"
                      fill="#FF6C37">

                </path>
                <path d="M152.557304,7.03873136 C144.366781,-0.895838537 131.185156,-0.639884669 123.250587,7.67861603 C115.316017,15.9971167 115.57197,29.050764 123.890471,36.9853339 C130.673249,43.5121575 140.911403,44.6639499 148.97395,39.8008264 L134.38458,25.211456 L152.557304,7.03873136 Z"
                      fill="#FFFFFF">

                </path>
                <path d="M138.223888,44.0240653 C126.066079,44.0240653 116.211855,34.1698413 116.211855,22.0120326 C116.211855,9.85422391 126.066079,-1.81866161e-14 138.223888,-1.81866161e-14 C143.854873,-1.81866161e-14 149.357881,2.17560788 153.453143,6.14289283 C153.709097,6.39884669 153.837074,6.65480056 153.837074,7.03873136 C153.837074,7.42266217 153.709097,7.67861603 153.453143,7.9345699 L136.176257,25.211456 L149.741812,38.777011 C150.25372,39.2889187 150.25372,40.0567803 149.741812,40.568688 C149.613835,40.696665 149.613835,40.696665 149.485858,40.8246419 C146.158458,42.8722729 142.191173,44.0240653 138.223888,44.0240653 Z M138.223888,2.68751561 C127.473825,2.68751561 118.771394,11.3899471 118.899371,22.1400096 C118.899371,32.890072 127.601802,41.5925035 138.351865,41.4645266 C141.295334,41.4645266 144.238804,40.8246419 146.926319,39.4168956 L133.488741,26.1072945 C133.232787,25.8513406 133.10481,25.5953868 133.10481,25.211456 C133.10481,24.8275252 133.232787,24.5715713 133.488741,24.3156174 L150.63765,7.1667083 C147.182273,4.22323882 142.831057,2.68751561 138.223888,2.68751561 L138.223888,2.68751561 Z"
                      fill="#FF6C37">

                </path>
                <path d="M152.941235,7.42266217 L152.685281,7.1667083 L134.38458,25.211456 L148.845973,39.6728495 C150.25372,38.777011 151.661466,37.7531955 152.813258,36.6014031 C161.003782,28.5388563 161.003782,15.485209 152.941235,7.42266217 L152.941235,7.42266217 Z"
                      fill="#FFFFFF">

                </path>
                <path d="M148.97395,41.0805958 C148.590019,41.0805958 148.334066,40.9526188 148.078112,40.696665 L133.488741,26.1072945 C133.232787,25.8513406 133.10481,25.5953868 133.10481,25.211456 C133.10481,24.8275252 133.232787,24.5715713 133.488741,24.3156174 L151.661466,6.14289283 C152.173374,5.63098509 152.941235,5.63098509 153.453143,6.14289283 L153.837074,6.39884669 C162.411528,14.9733013 162.411528,28.7948101 153.965051,37.4972416 C152.685281,38.777011 151.277535,39.9288034 149.741812,40.8246419 C149.357881,40.9526188 149.101927,41.0805958 148.97395,41.0805958 L148.97395,41.0805958 Z M136.176257,25.211456 L149.101927,38.1371263 C150.125743,37.4972416 151.149558,36.6014031 151.91742,35.8335415 C159.212105,28.5388563 159.596036,16.6370014 152.557304,8.95838537 L136.176257,25.211456 Z"
                      fill="#FF6C37">

                </path>
                <path d="M126.194056,39.2889187 C123.12261,36.2174723 118.131509,36.2174723 115.060063,39.2889187 L66.8127587,87.5362228 L74.8753055,95.5987696 L125.938102,50.8068428 C129.265502,47.9913502 129.521456,43.0002498 126.705964,39.6728495 C126.45001,39.5448726 126.322033,39.4168956 126.194056,39.2889187 L126.194056,39.2889187 Z"
                      fill="#FFFFFF">

                </path>
                <path d="M74.7473286,96.878539 C74.3633978,96.878539 74.1074439,96.750562 73.85149,96.4946082 L65.7889432,88.4320613 C65.2770355,87.9201536 65.2770355,87.152292 65.7889432,86.6403842 L114.036247,38.3930802 C117.619601,34.809726 123.378563,34.809726 126.961918,38.3930802 C130.545272,41.9764343 130.545272,47.7353963 126.961918,51.3187505 C126.833941,51.4467274 126.705964,51.5747044 126.577987,51.7026813 L75.5151902,96.4946082 C75.3872133,96.750562 75.1312594,96.878539 74.7473286,96.878539 L74.7473286,96.878539 Z M68.6044358,87.5362228 L74.8753055,93.8070925 L125.042264,49.7830273 C127.857756,47.4794425 128.11371,43.2562037 125.810125,40.4407111 C123.50654,37.6252186 119.283302,37.3692647 116.467809,39.6728495 C116.339832,39.8008264 116.211855,39.9288034 115.955901,40.0567803 L68.6044358,87.5362228 Z"
                      fill="#FF6C37">

                </path>
                <path d="M29.8274248,142.438327 C29.3155171,142.694281 29.0595632,143.206189 29.1875401,143.718097 L31.363148,152.932436 C31.8750557,154.212205 31.1071941,155.747929 29.6994479,156.131859 C28.6756324,156.51579 27.52384,156.131859 26.8839553,155.363998 L12.8064926,141.414512 L58.7502118,95.4707927 L74.6193516,95.7267466 L85.3694141,106.476809 C82.8098754,108.652417 67.3246664,123.625718 29.8274248,142.438327 L29.8274248,142.438327 Z"
                      fill="#FFFFFF">

                </path>
                <path d="M28.8036093,157.411629 C27.7797938,157.411629 26.7559784,157.027698 26.1160937,156.259836 L12.1666079,142.31035 C11.910654,142.054397 11.7826771,141.798443 11.7826771,141.414512 C11.7826771,141.030581 11.910654,140.774627 12.1666079,140.518673 L58.1103272,94.5749541 C58.366281,94.3190003 58.7502118,94.1910233 59.0061657,94.1910233 L74.8753055,94.4469772 C75.2592363,94.4469772 75.5151902,94.5749541 75.7711441,94.830908 L86.5212065,105.58097 C86.7771604,105.836924 86.9051373,106.220855 86.9051373,106.604786 C86.9051373,106.988717 86.7771604,107.244671 86.3932296,107.500624 L85.497391,108.268486 C71.931836,120.170341 53.5031576,132.072196 30.5952864,143.462143 L32.7708943,152.548505 C33.1548251,154.212205 32.3869635,156.003882 30.8512403,156.899721 C30.0833787,157.283652 29.443494,157.411629 28.8036093,157.411629 Z M14.7261466,141.414512 L27.9077708,154.468159 C28.2917016,155.108044 29.0595632,155.363998 29.6994479,154.980067 C30.3393325,154.596136 30.5952864,153.828275 30.2113556,153.18839 L28.0357477,143.974051 C27.7797938,142.822258 28.2917016,141.798443 29.3155171,141.286535 C51.9674343,129.896588 70.2681359,118.12271 83.705714,106.476809 L74.2354208,97.0065159 L59.5180734,96.750562 L14.7261466,141.414512 Z"
                      fill="#FF6C37">

                </path>
                <path d="M1.9284532,152.420528 L12.9344695,141.414512 L29.3155171,157.795559 L3.20822254,156.003882 C2.05643013,155.875905 1.28856853,154.85209 1.41654546,153.700298 C1.41654546,153.18839 1.5445224,152.676482 1.9284532,152.420528 L1.9284532,152.420528 Z"
                      fill="#FFFFFF">

                </path>
                <path d="M29.3155171,158.947352 L3.0802456,157.155675 C1.16059159,157.027698 -0.119177745,155.363998 0.00879918845,153.444344 C0.136776122,152.676482 0.39272999,151.908621 1.03261466,151.396713 L12.038631,140.390696 C12.5505387,139.878789 13.3184003,139.878789 13.830308,140.390696 L30.2113556,156.771744 C30.5952864,157.155675 30.7232633,157.667583 30.4673095,158.17949 C30.2113556,158.691398 29.8274248,158.947352 29.3155171,158.947352 L29.3155171,158.947352 Z M12.9344695,143.206189 L2.82429173,153.316367 C2.44036093,153.572321 2.44036093,154.212205 2.82429173,154.468159 C2.95226867,154.596136 3.0802456,154.724113 3.33619947,154.724113 L25.9881168,156.259836 L12.9344695,143.206189 Z"
                      fill="#FF6C37">

                </path>
                <path d="M54.2710192,101.357732 C53.5031576,101.357732 52.9912498,100.717847 52.9912498,100.077962 C52.9912498,99.6940315 53.1192268,99.4380776 53.3751806,99.1821238 L65.7889432,86.7683612 C66.3008509,86.2564534 67.0687125,86.2564534 67.5806203,86.7683612 L75.6431671,94.830908 C76.0270979,95.2148388 76.1550749,95.5987696 76.0270979,96.1106774 C75.899121,96.4946082 75.5151902,96.878539 75.0032825,97.0065159 L54.526973,101.357732 C54.3989961,101.357732 54.2710192,101.357732 54.2710192,101.357732 L54.2710192,101.357732 Z M66.6847817,89.4558768 L58.2383041,97.9023544 L72.059813,94.9588849 L66.6847817,89.4558768 Z"
                      fill="#FF6C37">

                </path>
                <path d="M74.6193516,95.7267466 L60.5418889,98.798193 C59.5180734,99.0541468 58.494258,98.4142622 58.2383041,97.3904467 C58.1103272,96.750562 58.2383041,96.1106774 58.7502118,95.5987696 L66.5568048,87.7921767 L74.6193516,95.7267466 Z"
                      fill="#FFFFFF">

                </path>
                <path d="M60.2859351,100.077962 C58.494258,100.077962 57.0865117,98.670216 57.0865117,96.878539 C57.0865117,95.9827004 57.4704425,95.2148388 57.9823502,94.5749541 L65.7889432,86.7683612 C66.3008509,86.2564534 67.0687125,86.2564534 67.5806203,86.7683612 L75.6431671,94.830908 C76.0270979,95.2148388 76.1550749,95.5987696 76.0270979,96.1106774 C75.899121,96.4946082 75.5151902,96.878539 75.0032825,97.0065159 L60.9258197,100.077962 C60.6698659,100.077962 60.413912,100.077962 60.2859351,100.077962 L60.2859351,100.077962 Z M66.6847817,89.4558768 L59.7740273,96.3666312 C59.5180734,96.6225851 59.5180734,96.878539 59.6460504,97.1344928 C59.7740273,97.3904467 60.0299812,97.5184236 60.413912,97.5184236 L72.1877899,94.9588849 L66.6847817,89.4558768 Z"
                      fill="#FF6C37">

                </path>
                <path d="M153.069212,19.7084478 C152.813258,18.9405862 151.91742,18.5566554 151.149558,18.8126093 C150.381697,19.0685632 149.997766,19.9644017 150.25372,20.7322633 C150.25372,20.8602402 150.381697,20.9882172 150.381697,21.1161941 C151.149558,22.6519173 150.893604,24.5715713 149.869789,25.9793176 C149.357881,26.6192023 149.485858,27.5150408 149.997766,28.0269485 C150.63765,28.5388563 151.533489,28.4108793 152.045397,27.7709947 C153.965051,25.3394329 154.348981,22.2679865 153.069212,19.7084478 L153.069212,19.7084478 Z"
                      fill="#FF6C37">

                </path>
            </g>
        </g>
    </g>

    <!-- in projects -->
    <g id="link">
        <path d="M11.2867 8.71333C10.6041 8.03103 9.67846 7.64774 8.71334 7.64774C7.74821 7.64774 6.82259 8.03103 6.14 8.71333L3.56584 11.2867C2.88324 11.9693 2.49976 12.8951 2.49976 13.8604C2.49976 14.8258 2.88324 15.7516 3.56584 16.4342C4.24844 17.1168 5.17424 17.5002 6.13959 17.5002C7.10493 17.5002 8.03074 17.1168 8.71334 16.4342L10 15.1475"
              stroke="#FCFCFC" stroke-width="1.66667" stroke-linecap="round" stroke-linejoin="round"/>
        <path d="M8.71338 11.2867C9.39597 11.969 10.3216 12.3523 11.2867 12.3523C12.2518 12.3523 13.1775 11.969 13.86 11.2867L16.4342 8.71334C17.1168 8.03074 17.5003 7.10493 17.5003 6.13959C17.5003 5.17424 17.1168 4.24844 16.4342 3.56584C15.7516 2.88324 14.8258 2.49976 13.8605 2.49976C12.8951 2.49976 11.9693 2.88324 11.2867 3.56584L10 4.8525"
              stroke="#FCFCFC" stroke-width="1.66667" stroke-linecap="round" stroke-linejoin="round"/>
    </g>

    <!--contacts-->
    <g id="git_contact">
        <path fill-rule="evenodd" clip-rule="evenodd"
              d="M15 0C6.7125 0 0 6.7125 0 15C0 21.6375 4.29375 27.2437 10.2563 29.2313C11.0063 29.3625 11.2875 28.9125 11.2875 28.5188C11.2875 28.1625 11.2688 26.9813 11.2688 25.725C7.5 26.4188 6.525 24.8062 6.225 23.9625C6.05625 23.5312 5.325 22.2 4.6875 21.8438C4.1625 21.5625 3.4125 20.8687 4.66875 20.85C5.85 20.8313 6.69375 21.9375 6.975 22.3875C8.325 24.6562 10.4812 24.0187 11.3438 23.625C11.475 22.65 11.8688 21.9937 12.3 21.6187C8.9625 21.2437 5.475 19.95 5.475 14.2125C5.475 12.5813 6.05625 11.2313 7.0125 10.1813C6.8625 9.80625 6.3375 8.26875 7.1625 6.20625C7.1625 6.20625 8.41875 5.8125 11.2875 7.74375C12.4875 7.40625 13.7625 7.2375 15.0375 7.2375C16.3125 7.2375 17.5875 7.40625 18.7875 7.74375C21.6562 5.79375 22.9125 6.20625 22.9125 6.20625C23.7375 8.26875 23.2125 9.80625 23.0625 10.1813C24.0188 11.2313 24.6 12.5625 24.6 14.2125C24.6 19.9688 21.0938 21.2437 17.7563 21.6187C18.3 22.0875 18.7688 22.9875 18.7688 24.3937C18.7688 26.4 18.75 28.0125 18.75 28.5188C18.75 28.9125 19.0312 29.3813 19.7812 29.2313C22.759 28.2259 25.3465 26.3121 27.1796 23.7592C29.0127 21.2063 29.9991 18.1429 30 15C30 6.7125 23.2875 0 15 0Z"
              fill="#A7A7A7"/>
    </g>

    <g id="telegram">
        <path d="M36.7527 0.38643L1.31463 14.2583C-0.111463 14.9043 -0.593806 16.1979 0.969943 16.9L10.0613 19.8328L32.0432 6.04268C33.2434 5.17696 34.4722 5.4078 33.4148 6.36015L14.5354 23.712L13.9424 31.0553C14.4917 32.1891 15.4974 32.1944 16.139 31.6308L21.3623 26.6139L30.308 33.4137C32.3857 34.6623 33.5163 33.8565 33.9633 31.568L39.8309 3.36528C40.4401 0.548323 39.4012 -0.692859 36.7527 0.38643Z"
              fill="#A7A7A7"/>
    </g>

</svg>